HIERARCHY
ROOT Hips
{
  OFFSET 126.96 91.9987 35.2002
  CHANNELS 6 Xposition Yposition Zposition Zrotation Xrotation Yrotation
  JOINT RightUpLeg
  {
    OFFSET -9.21262 -1.62705 0.0892923
    CHANNELS 3 Zrotation Xrotation Yrotation
    JOINT RightLeg
    {
      OFFSET 0.0960154 -41.8606 0.153467
      CHANNELS 3 Zrotation Xrotation Yrotation
      JOINT RightFoot
      {
        OFFSET 1.33859 -39.7491 3.70458
        CHANNELS 3 Zrotation Xrotation Yrotation
        End Site
        {
          OFFSET 0 -7.69 17.5
        }
      }
    }
  }
  JOINT LeftUpLeg
  {
    OFFSET 9.28909 -1.62806 0.0108209
    CHANNELS 3 Zrotation Xrotation Yrotation
    JOINT LeftLeg
    {
      OFFSET 0.0929201 -41.8886 0.0218006
      CHANNELS 3 Zrotation Xrotation Yrotation
      JOINT LeftFoot
      {
        OFFSET -1.57781 -41.3397 -3.31563
        CHANNELS 3 Zrotation Xrotation Yrotation
        End Site
        {
          OFFSET 0 -7.69 17.5
        }
      }
    }
  }
  JOINT Spine
  {
    OFFSET 0.0128959 14.3037 0.0259321
    CHANNELS 3 Zrotation Xrotation Yrotation
    JOINT Spine1
    {
      OFFSET 0.0143034 9.71252 0.015398
      CHANNELS 3 Zrotation Xrotation Yrotation
      JOINT Spine2
      {
        OFFSET 0.0468817 10.117 -0.0314137
        CHANNELS 3 Zrotation Xrotation Yrotation
        JOINT Spine3
        {
          OFFSET 0.0102655 9.71178 0.00221616
          CHANNELS 3 Zrotation Xrotation Yrotation
          JOINT Neck
          {
            OFFSET -0.0402596 10.3794 0.0231037
            CHANNELS 3 Zrotation Xrotation Yrotation
            JOINT Head
            {
              OFFSET -0.03453 9.49168 0.0708427
              CHANNELS 3 Zrotation Xrotation Yrotation
              End Site
              {
                OFFSET 0 15.95 0
              }
            }
          }
          JOINT RightShoulder
          {
            OFFSET -3.17991 6.93495 0.0309862
            CHANNELS 3 Zrotation Xrotation Yrotation
            JOINT RightArm
            {
              OFFSET -12.8253 0.0342167 0.035901
              CHANNELS 3 Zrotation Xrotation Yrotation
              JOINT RightForeArm
              {
                OFFSET -26.4423 -0.000685918 0.00421057
                CHANNELS 3 Zrotation Xrotation Yrotation
                JOINT RightHand
                {
                  OFFSET -25.9842 -0.0662606 -0.0268032
                  CHANNELS 3 Zrotation Xrotation Yrotation
                  JOINT RightHandThumb1
                  {
                    OFFSET -2.48905 0.190105 3.12053
                    CHANNELS 3 Zrotation Xrotation Yrotation
                    JOINT RightHandThumb2
                    {
                      OFFSET -3.68274 0 0
                      CHANNELS 3 Zrotation Xrotation Yrotation
                      JOINT RightHandThumb3
                      {
                        OFFSET -2.55832 0 0
                        CHANNELS 3 Zrotation Xrotation Yrotation
                        End Site
                        {
                          OFFSET -2.194 0 0
                        }
                      }
                    }
                  }
                  JOINT RightInHandIndex
                  {
                    OFFSET -3.22368 0.508421 1.97842
                    CHANNELS 3 Zrotation Xrotation Yrotation
                    JOINT RightHandIndex1
                    {
                      OFFSET -5.21684 -0.091368 0.999158
                      CHANNELS 3 Zrotation Xrotation Yrotation
                      JOINT RightHandIndex2
                      {
                        OFFSET -3.61937 0 0
                        CHANNELS 3 Zrotation Xrotation Yrotation
                        JOINT RightHandIndex3
                        {
                          OFFSET -2.0521 0 0
                          CHANNELS 3 Zrotation Xrotation Yrotation
                          End Site
                          {
                            OFFSET -1.805 0 0
                          }
                        }
                      }
                    }
                  }
                  JOINT RightInHandMiddle
                  {
                    OFFSET -3.38211 0.517263 0.756737
                    CHANNELS 3 Zrotation Xrotation Yrotation
                    JOINT RightHandMiddle1
                    {
                      OFFSET -5.17411 -0.084 0.313895
                      CHANNELS 3 Zrotation Xrotation Yrotation
                      JOINT RightHandMiddle2
                      {
                        OFFSET -3.94947 0 0
                        CHANNELS 3 Zrotation Xrotation Yrotation
                        JOINT RightHandMiddle3
                        {
                          OFFSET -2.47579 0 0
                          CHANNELS 3 Zrotation Xrotation Yrotation
                          End Site
                          {
                            OFFSET -1.975 0 0
                          }
                        }
                      }
                    }
                  }
                  JOINT RightInHandRing
                  {
                    OFFSET -3.36516 0.537895 -0.128947
                    CHANNELS 3 Zrotation Xrotation Yrotation
                    JOINT RightHandRing1
                    {
                      OFFSET -4.63474 -0.022105 -0.478947
                      CHANNELS 3 Zrotation Xrotation Yrotation
                      JOINT RightHandRing2
                      {
                        OFFSET -3.44238 0 0
                        CHANNELS 3 Zrotation Xrotation Yrotation
                        JOINT RightHandRing3
                        {
                          OFFSET -2.3881 0 0
                          CHANNELS 3 Zrotation Xrotation Yrotation
                          End Site
                          {
                            OFFSET -1.857 0 0
                          }
                        }
                      }
                    }
                  }
                  JOINT RightInHandPinky
                  {
                    OFFSET -3.16105 0.469368 -1.20179
                    CHANNELS 3 Zrotation Xrotation Yrotation
                    JOINT RightHandPinky1
                    {
                      OFFSET -4.14105 -0.022105 -1.09053
                      CHANNELS 3 Zrotation Xrotation Yrotation
                      JOINT RightHandPinky2
                      {
                        OFFSET -2.75653 0 0
                        CHANNELS 3 Zrotation Xrotation Yrotation
                        JOINT RightHandPinky3
                        {
                          OFFSET -1.74189 0 0
                          CHANNELS 3 Zrotation Xrotation Yrotation
                          End Site
                          {
                            OFFSET -1.645 0 0
                          }
                        }
                      }
                    }
                  }
                }
              }
            }
          }
          JOINT LeftShoulder
          {
            OFFSET 3.21113 6.90952 -0.0469957
            CHANNELS 3 Zrotation Xrotation Yrotation
            JOINT LeftArm
            {
              OFFSET 12.7919 -0.0331125 -0.0859637
              CHANNELS 3 Zrotation Xrotation Yrotation
              JOINT LeftForeArm
              {
                OFFSET 26.4755 -0.0026531 -0.0242133
                CHANNELS 3 Zrotation Xrotation Yrotation
                JOINT LeftHand
                {
                  OFFSET 25.9936 -0.03295 -0.105102
                  CHANNELS 3 Zrotation Xrotation Yrotation
                  JOINT LeftHandThumb1
                  {
                    OFFSET 2.48905 0.190105 3.12053
                    CHANNELS 3 Zrotation Xrotation Yrotation
                    JOINT LeftHandThumb2
                    {
                      OFFSET 3.68274 0 0
                      CHANNELS 3 Zrotation Xrotation Yrotation
                      JOINT LeftHandThumb3
                      {
                        OFFSET 2.55832 0 0
                        CHANNELS 3 Zrotation Xrotation Yrotation
                        End Site
                        {
                          OFFSET 2.194 0 0
                        }
                      }
                    }
                  }
                  JOINT LeftInHandIndex
                  {
                    OFFSET 3.22368 0.508421 1.97842
                    CHANNELS 3 Zrotation Xrotation Yrotation
                    JOINT LeftHandIndex1
                    {
                      OFFSET 5.21684 -0.091368 0.999158
                      CHANNELS 3 Zrotation Xrotation Yrotation
                      JOINT LeftHandIndex2
                      {
                        OFFSET 3.61937 0 0
                        CHANNELS 3 Zrotation Xrotation Yrotation
                        JOINT LeftHandIndex3
                        {
                          OFFSET 2.0521 0 0
                          CHANNELS 3 Zrotation Xrotation Yrotation
                          End Site
                          {
                            OFFSET 1.805 0 0
                          }
                        }
                      }
                    }
                  }
                  JOINT LeftInHandMiddle
                  {
                    OFFSET 3.38211 0.517263 0.756737
                    CHANNELS 3 Zrotation Xrotation Yrotation
                    JOINT LeftHandMiddle1
                    {
                      OFFSET 5.17411 -0.084 0.313895
                      CHANNELS 3 Zrotation Xrotation Yrotation
                      JOINT LeftHandMiddle2
                      {
                        OFFSET 3.94947 0 0
                        CHANNELS 3 Zrotation Xrotation Yrotation
                        JOINT LeftHandMiddle3
                        {
                          OFFSET 2.47579 0 0
                          CHANNELS 3 Zrotation Xrotation Yrotation
                          End Site
                          {
                            OFFSET 1.975 0 0
                          }
                        }
                      }
                    }
                  }
                  JOINT LeftInHandRing
                  {
                    OFFSET 3.36516 0.537895 -0.128947
                    CHANNELS 3 Zrotation Xrotation Yrotation
                    JOINT LeftHandRing1
                    {
                      OFFSET 4.63474 -0.022105 -0.478947
                      CHANNELS 3 Zrotation Xrotation Yrotation
                      JOINT LeftHandRing2
                      {
                        OFFSET 3.44238 0 0
                        CHANNELS 3 Zrotation Xrotation Yrotation
                        JOINT LeftHandRing3
                        {
                          OFFSET 2.3881 0 0
                          CHANNELS 3 Zrotation Xrotation Yrotation
                          End Site
                          {
                            OFFSET 1.857 0 0
                          }
                        }
                      }
                    }
                  }
                  JOINT LeftInHandPinky
                  {
                    OFFSET 3.16105 0.469368 -1.20179
                    CHANNELS 3 Zrotation Xrotation Yrotation
                    JOINT LeftHandPinky1
                    {
                      OFFSET 4.14105 -0.022105 -1.09053
                      CHANNELS 3 Zrotation Xrotation Yrotation
                      JOINT LeftHandPinky2
                      {
                        OFFSET 2.75653 0 0
                        CHANNELS 3 Zrotation Xrotation Yrotation
                        JOINT LeftHandPinky3
                        {
                          OFFSET 1.74189 0 0
                          CHANNELS 3 Zrotation Xrotation Yrotation
                          End Site
                          {
                            OFFSET 1.645 0 0
                          }
                        }
                      }
                    }
                  }
                }
              }
            }
          }
        }
      }
    }
  }
}
MOTION
Frames: 3
Frame Time: 0.00833333
1.499989741051525982e+02 -1.028017414263293367e-03 -5.420797816043745367e-03 -8.762874340023757425e-02 6.861723684812775191e-03 -2.464092915676441842e-01 1.184559736527650564e-01 -2.786953921069729861e-02 2.348683561632253919e-02 -1.776044635497704693e-02 4.616741634784497783e-02 2.002453575034016942e-01 1.681707124620663435e-02 3.219431264291783973e-02 8.517852436445744191e-02 1.152551905956875067e-02 1.940346413396903391e-01 1.294371539689938289e-02 -1.902344231971109592e-02 1.357856097955566776e-01 -2.959682442174553507e-02 -1.659743489355978707e-01 -1.892351644702449098e-01 1.062384296381087001e-01 -1.005958637138671813e-01 -3.646916739495807691e-02 5.976825772047871660e-02 -2.117220637898999461e-02 -1.252713194050998624e-02 1.533181170367554913e-02 -3.757290313494848766e-02 -2.203162812989513386e-02 2.758179394790607336e-02 9.592426622571689331e-04 3.820697134962885988e-03 2.572510332886010932e-03 2.487139287057743564e-02 3.292170468721814913e-03 3.235925185533401471e-01 8.218200728594854398e-02 1.039388489939414850e-01 -1.005660236215360492e-01 -3.516397653951360003e-02 -1.061449533803026785e-01 -6.572718138717312808e-01 1.736588190121017838e-01 4.338586178749189171e-01 -5.396867622899563788e-01 -4.459879607936641926e-02 7.587016306854384995e-01 -7.556679853379236533e+01 1.061077125515490216e-01 4.569031713899948111e-01 1.206378529731440441e+00 0.000000000000000000e+00 0.000000000000000000e+00 0.000000000000000000e+00 7.680454698693469968e-15 3.771179615487889118e-15 0.000000000000000000e+00 -2.293216851460457038e-16 -9.552669632675226065e-15 0.000000000000000000e+00 1.135559564279968921e-15 -9.200480794508224723e-15 -4.307118316765315864e-16 0.000000000000000000e+00 0.000000000000000000e+00 0.000000000000000000e+00 0.000000000000000000e+00 6.374684340109486485e-15 -9.872814983725144251e-15 0.000000000000000000e+00 -1.357720134607820391e-16 -8.670573152997075281e-15 1.135559564279968921e-15 -9.200480794508224723e-15 -4.307118316765315864e-16 0.000000000000000000e+00 -8.995786697352690865e-15 -6.896057249440118579e-15 0.000000000000000000e+00 -4.880383146645092169e-15 1.987157838984391405e-15 0.000000000000000000e+00 1.136587088914117904e-16 -1.090762583059753933e-14 1.135559564279968921e-15 -9.200480794508224723e-15 -4.307118316765315864e-16 0.000000000000000000e+00 0.000000000000000000e+00 0.000000000000000000e+00 0.000000000000000000e+00 -6.253569862528692049e-16 -6.647567185279284150e-15 0.000000000000000000e+00 -2.725344208602306363e-15 1.272571306851258235e-14 1.135559564279968921e-15 -9.200480794508224723e-15 -4.307118316765315864e-16 0.000000000000000000e+00 0.000000000000000000e+00 0.000000000000000000e+00 0.000000000000000000e+00 2.189612094529252494e-15 9.892978153223373631e-15 0.000000000000000000e+00 -2.008386340885689785e-15 9.297017007559145535e-15 3.561558517442646454e-02 3.513175543426960701e-02 7.210360588905391499e-02 4.857031749352823391e-02 -1.268617020377563742e-01 -1.085150010661358189e-01 5.152742141970079875e-02 -1.301258832863816384e-01 4.286037391429254328e-01 -2.233501826840673388e-01 1.128784112906452419e-01 -1.185822574607892782e-01 0.000000000000000000e+00 0.000000000000000000e+00 0.000000000000000000e+00 -1.243750740482330473e-15 3.051881077255556072e-15 0.000000000000000000e+00 -6.393226107524015554e-15 4.706663268262588334e-15 0.000000000000000000e+00 6.959036143702446357e-15 -1.483261948009361581e-16 -1.183019848549346987e-15 0.000000000000000000e+00 0.000000000000000000e+00 0.000000000000000000e+00 0.000000000000000000e+00 5.143225866088135515e-15 8.157485189838109995e-15 0.000000000000000000e+00 -2.004313342232056996e-16 8.953930442164047265e-15 6.959036143702446357e-15 -1.483261948009361581e-16 -1.183019848549346987e-15 0.000000000000000000e+00 2.238341090784913645e-15 4.769596587060365708e-15 0.000000000000000000e+00 8.979006347822072782e-16 -8.918675352812593677e-15 0.000000000000000000e+00 7.611570934474417258e-16 2.825152806126165259e-14 6.959036143702446357e-15 -1.483261948009361581e-16 -1.183019848549346987e-15 0.000000000000000000e+00 0.000000000000000000e+00 0.000000000000000000e+00 0.000000000000000000e+00 -9.424553719572479787e-15 9.742451104541098482e-15 0.000000000000000000e+00 -8.258069649286511367e-15 2.766132445594351983e-14 6.959036143702446357e-15 -1.483261948009361581e-16 -1.183019848549346987e-15 0.000000000000000000e+00 0.000000000000000000e+00 0.000000000000000000e+00 0.000000000000000000e+00 -6.202831722945759209e-15 1.090968384181736623e-14 0.000000000000000000e+00 -8.129331047015413901e-15 1.487842970826896693e-14
1.499936548664798295e+02 -3.554110367447422397e-03 -3.464543647139106675e-03 1.905753727870270614e-04 3.445978900261479488e-02 -2.383307562424177850e-04 -5.183441838579527089e-02 -7.119092210757560490e-02 -1.019727703192459395e-01 9.296836609147544894e-02 1.913967172008537027e-02 4.009097056615201771e-04 -9.465542645183983028e-03 3.474502045058754790e-02 4.747291445859659620e-02 -1.349898610914973193e-02 4.563344461580549905e-02 -2.009959461448383444e-01 8.631779850709578317e-03 1.889936633013206690e-01 -7.477265455556936224e-02 -1.837217776782102963e-01 -2.347217642837151896e-01 1.405815121079198038e-01 -1.491483842005944874e-02 -4.008033994527855290e-03 -5.747350937277782845e-02 -1.365829196151787783e-03 -4.705389144677973520e-03 -1.380963178406954123e-02 -4.074397823138523923e-03 -9.323596569715344312e-03 -2.145521324039629391e-02 5.430991245640938610e-04 2.041198235427439840e-03 1.874027647292019578e-03 9.675634790255750392e-03 -6.787877933950834525e-03 3.341563622775335363e-01 8.167713633754894453e-02 8.651244563117424513e-02 -1.588862687726468048e-01 -8.875251927705851696e-02 -2.044222088761117606e-01 -1.007501253460894697e+00 6.254328188834326618e-02 5.469066969266620504e-01 -8.598334807017302683e-01 2.110940990733394321e-02 1.150840141865866251e+00 -4.160206574234358357e+01 1.033800482549934868e-01 5.884008541479529564e-01 1.417878121145987880e+00 0.000000000000000000e+00 0.000000000000000000e+00 0.000000000000000000e+00 8.221285523871304069e-15 -7.281107478008390639e-15 0.000000000000000000e+00 -6.058799588963653546e-16 -1.234418334012481548e-14 0.000000000000000000e+00 8.877349363528190747e-16 -1.583727726153655565e-14 3.633535563337554807e-15 0.000000000000000000e+00 0.000000000000000000e+00 0.000000000000000000e+00 0.000000000000000000e+00 3.394521966139962607e-15 -1.639069453227570878e-14 0.000000000000000000e+00 -2.845418604121963745e-15 -1.371591024993396920e-14 8.877349363528190747e-16 -1.583727726153655565e-14 3.633535563337554807e-15 0.000000000000000000e+00 -5.296432556004005652e-15 -9.676382097133056305e-15 0.000000000000000000e+00 -3.653203935337472686e-15 -5.618373476673190534e-15 0.000000000000000000e+00 5.917654822401403969e-15 -1.889896271443231207e-14 8.877349363528190747e-16 -1.583727726153655565e-14 3.633535563337554807e-15 0.000000000000000000e+00 0.000000000000000000e+00 0.000000000000000000e+00 0.000000000000000000e+00 -4.877169909428626808e-15 -1.457499802248326860e-14 0.000000000000000000e+00 -3.088631375861144632e-15 -4.169501844591461629e-15 8.877349363528190747e-16 -1.583727726153655565e-14 3.633535563337554807e-15 0.000000000000000000e+00 0.000000000000000000e+00 0.000000000000000000e+00 0.000000000000000000e+00 -6.315820602555183616e-15 -4.133310545504586996e-15 0.000000000000000000e+00 -2.672190247683579465e-15 -4.900818537158944364e-15 2.362158059584837377e-02 -6.278011457770352882e-03 4.783155963548577083e-02 2.149469295829402327e-02 -1.126448068576023920e-01 -8.516569674266745438e-02 1.417268218254473799e-01 9.406669477302806448e-02 -1.850994014368132490e-01 -2.235814550551554203e-01 -5.994138755969337096e-01 8.523718205162397754e-02 0.000000000000000000e+00 0.000000000000000000e+00 0.000000000000000000e+00 -5.549068327666810126e-15 -8.666653322282533846e-16 0.000000000000000000e+00 3.404737635000835220e-15 -2.890408582613531504e-15 0.000000000000000000e+00 3.535944682923989829e-15 3.331711014454748484e-15 -4.163624462698079803e-15 0.000000000000000000e+00 0.000000000000000000e+00 0.000000000000000000e+00 0.000000000000000000e+00 5.313542666299313342e-15 7.261661138581397291e-15 0.000000000000000000e+00 3.367736574602354493e-17 2.083858183233085121e-14 3.535944682923989829e-15 3.331711014454748484e-15 -4.163624462698079803e-15 0.000000000000000000e+00 6.834277059113851275e-15 5.417924779667055157e-15 0.000000000000000000e+00 -6.114688653050418048e-15 9.933675488146849920e-15 0.000000000000000000e+00 1.215847798343219168e-15 1.850033207874519073e-14 3.535944682923989829e-15 3.331711014454748484e-15 -4.163624462698079803e-15 0.000000000000000000e+00 0.000000000000000000e+00 0.000000000000000000e+00 0.000000000000000000e+00 -3.483805150526105329e-15 1.542730611386302121e-14 0.000000000000000000e+00 -7.750005728869144882e-15 3.708697672090035338e-14 3.535944682923989829e-15 3.331711014454748484e-15 -4.163624462698079803e-15 0.000000000000000000e+00 0.000000000000000000e+00 0.000000000000000000e+00 0.000000000000000000e+00 -5.761553312345246502e-15 1.276995307188380241e-14 0.000000000000000000e+00 -1.104824439177140751e-14 3.604086767024971577e-14
1.499922493419035163e+02 -6.152868668244471616e-03 -6.190066549661991414e-03 9.019621196196155044e-02 6.965451175386361271e-02 2.528597080610303083e-01 -2.225490056752329193e-01 -1.002292757535339779e-01 -2.451748451382572414e-01 1.685193973760104047e-01 -1.368237781068311690e-02 -1.923124073999736283e-01 -2.145206522599245325e-02 3.073015799857414451e-02 2.152291800365718766e-02 -5.781356788635676203e-02 -7.614066737341507185e-02 -3.624672575525791363e-01 8.086288407570264847e-02 2.127943284390167999e-01 -1.902035056310967531e-01 -2.000988023808044358e-01 -2.737040178080800135e-01 1.632857805055093203e-01 6.428896507460443721e-02 2.908949894401772693e-02 -1.794336766628211732e-01 1.563041408325122755e-02 2.624043384929220825e-03 -4.409808996381397311e-02 2.482141879044655330e-02 2.347808872965955872e-03 -7.208218713793795862e-02 2.413265981617153497e-04 -3.537990092485161862e-03 1.391051827186553114e-03 -2.559718734294215772e-02 -3.400849029580405025e-02 3.119594647510547381e-01 6.710346973835576434e-02 7.728345158612552959e-03 -2.501207008782215246e-01 -1.332945578994454428e-01 -2.935753311238779584e-01 -1.314331258187631857e+00 -2.845763826224100707e-02 6.399203069833478974e-01 -1.149995798169671124e+00 8.576787099658042535e-02 1.513928900802076871e+00 -5.971784448548051571e+00 9.630617529256260689e-02 6.903807369983000486e-01 1.592901304998748602e+00 0.000000000000000000e+00 0.000000000000000000e+00 0.000000000000000000e+00 9.419253394417436031e-16 -5.684128893965437057e-15 0.000000000000000000e+00 9.121663037964817990e-15 -1.197575597708360047e-14 0.000000000000000000e+00 3.969687456807922946e-15 -9.725024830417999568e-15 2.917940550637252232e-15 0.000000000000000000e+00 0.000000000000000000e+00 0.000000000000000000e+00 0.000000000000000000e+00 9.769465613365525729e-15 2.481390650441329967e-15 0.000000000000000000e+00 3.660708630762545815e-15 2.324688855906937806e-14 3.969687456807922946e-15 -9.725024830417999568e-15 2.917940550637252232e-15 0.000000000000000000e+00 -2.865079282899266304e-15 1.775941107738540118e-15 0.000000000000000000e+00 4.132126666140162127e-15 8.970719811057220331e-15 0.000000000000000000e+00 9.267221252818703860e-15 1.146220691904402000e-14 3.969687456807922946e-15 -9.725024830417999568e-15 2.917940550637252232e-15 0.000000000000000000e+00 0.000000000000000000e+00 0.000000000000000000e+00 0.000000000000000000e+00 -2.749301319463140794e-15 9.892480133247236407e-15 0.000000000000000000e+00 6.758601879640077745e-15 2.059879849449579920e-14 3.969687456807922946e-15 -9.725024830417999568e-15 2.917940550637252232e-15 0.000000000000000000e+00 0.000000000000000000e+00 0.000000000000000000e+00 0.000000000000000000e+00 9.285503421243389236e-15 1.211772684881301398e-14 0.000000000000000000e+00 -3.458175504831330435e-16 2.583466731278845554e-14 2.542607402161233682e-02 -4.738991712333289266e-03 2.193056016764072594e-02 -6.014033535052015073e-03 -1.212181976575002346e-01 -4.471174229974569925e-02 2.184484272260324433e-01 3.235460479898912833e-01 -7.901344677818893381e-01 -2.115100486807383606e-01 -1.311879136696974868e+00 3.822212956956494989e-01 0.000000000000000000e+00 0.000000000000000000e+00 0.000000000000000000e+00 -4.532762837803581878e-15 2.472314660458196923e-15 0.000000000000000000e+00 1.683699930894487347e-15 -5.111228693997269306e-16 0.000000000000000000e+00 3.366501017291248068e-15 2.003921051216344865e-15 -1.629704740248502989e-15 0.000000000000000000e+00 0.000000000000000000e+00 0.000000000000000000e+00 0.000000000000000000e+00 3.570819376028870085e-16 4.259304633548150770e-15 0.000000000000000000e+00 -1.850423634824585277e-15 7.191100062551904710e-15 3.366501017291248068e-15 2.003921051216344865e-15 -1.629704740248502989e-15 0.000000000000000000e+00 5.001627369824448928e-15 -2.589147778796900721e-16 0.000000000000000000e+00 -1.463360283213282042e-15 -6.402397373335952099e-15 0.000000000000000000e+00 -2.709500545538146562e-15 1.701007430084902648e-14 3.366501017291248068e-15 2.003921051216344865e-15 -1.629704740248502989e-15 0.000000000000000000e+00 0.000000000000000000e+00 0.000000000000000000e+00 0.000000000000000000e+00 -1.466957347844616018e-15 6.865483731199940076e-15 0.000000000000000000e+00 -4.845505631400397830e-15 1.353545568501095416e-14 3.366501017291248068e-15 2.003921051216344865e-15 -1.629704740248502989e-15 0.000000000000000000e+00 0.000000000000000000e+00 0.000000000000000000e+00 0.000000000000000000e+00 -2.385956404006130789e-15 -1.597428227355847236e-15 0.000000000000000000e+00 -8.669940945241831280e-16 1.089102732679785215e-14
